<?xml version="1.0" encoding="UTF-8" standalone="no"?>
<!-- Created with Inkscape (http://www.inkscape.org/) -->

<svg
   xmlns:dc="http://purl.org/dc/elements/1.1/"
   xmlns:cc="http://creativecommons.org/ns#"
   xmlns:rdf="http://www.w3.org/1999/02/22-rdf-syntax-ns#"
   xmlns:svg="http://www.w3.org/2000/svg"
   xmlns="http://www.w3.org/2000/svg"
   xmlns:sodipodi="http://sodipodi.sourceforge.net/DTD/sodipodi-0.dtd"
   xmlns:inkscape="http://www.inkscape.org/namespaces/inkscape"
   width="744.09448819"
   height="1052.3622047"
   id="svg2"
   version="1.1"
   inkscape:version="0.91 r13725"
   sodipodi:docname="godot_engine_logo_plain.svg">
  <defs
     id="defs4" />
  <sodipodi:namedview
     id="base"
     pagecolor="#ffffff"
     bordercolor="#666666"
     borderopacity="1.0"
     inkscape:pageopacity="0.0"
     inkscape:pageshadow="2"
     inkscape:zoom="0.70710678"
     inkscape:cx="433.10363"
     inkscape:cy="1184.0254"
     inkscape:document-units="px"
     inkscape:current-layer="layer1"
     showgrid="false"
     inkscape:window-width="1680"
     inkscape:window-height="988"
     inkscape:window-x="-8"
     inkscape:window-y="-8"
     inkscape:window-maximized="1" />
  <metadata
     id="metadata7">
    <rdf:RDF>
      <cc:Work
         rdf:about="">
        <dc:format>image/svg+xml</dc:format>
        <dc:type
           rdf:resource="http://purl.org/dc/dcmitype/StillImage" />
        <dc:title />
      </cc:Work>
    </rdf:RDF>
  </metadata>
  <g
     inkscape:label="Layer 1"
     inkscape:groupmode="layer"
     id="layer1">
    <path
       sodipodi:type="arc"
       style="opacity:1;fill:#ffffff;fill-opacity:1;stroke:none"
       id="path3498"
       sodipodi:cx="148.49243"
       sodipodi:cy="465.46356"
       sodipodi:rx="159.6041"
       sodipodi:ry="159.6041"
       d="m 308.09653,465.46356 a 159.6041,159.6041 0 1 1 -319.208194,0 159.6041,159.6041 0 1 1 319.208194,0 z"
       transform="translate(219.2031,-64.649763)" />
    <path
       sodipodi:type="arc"
       style="fill:#ffffff;fill-opacity:1;stroke:none"
       id="path4724"
       sodipodi:cx="201"
       sodipodi:cy="192.36218"
       sodipodi:rx="61"
       sodipodi:ry="61"
       d="m 262,192.36218 a 61,61 0 1 1 -122,0 61,61 0 1 1 122,0 z"
       transform="matrix(0.93442623,0,0,0.86885246,103.18033,-166.77218)"
       inkscape:export-filename="/home/janist/Documents/godot/parallax-template/logo2.png"
       inkscape:export-xdpi="50"
       inkscape:export-ydpi="50" />
    <path
       style="fill:#468cbf;fill-opacity:1"
       d="m 283.90335,-31.384861 c -0.75201,0.01244 -5.5021,1.519392 -7.16658,2.293306 l -1.83644,0.851031 0.18812,2.499344 c 0.10427,1.377772 0.26735,3.042018 0.35833,3.699747 0.15676,1.133194 0.1132,1.226534 -0.79728,1.693104 -0.52846,0.270805 -1.99807,1.287938 -3.26975,2.266431 l -2.31122,1.782687 -2.8308,-1.675188 c -1.55735,-0.921617 -2.94,-1.675188 -3.06371,-1.675188 -0.32856,0 -3.24386,3.555629 -4.75682,5.804929 -1.50871,2.24299 -1.57757,1.882784 1.0929,5.6078495 l 1.71102,2.382887 0,8.1161514 0,8.1251091 0.78833,0.197081 c 1.81614,0.44653 2.07831,0.842007 2.07831,3.144336 l 0,2.114141 2.14997,0.725617 2.14997,0.716657 0,-2.230597 c 0,-1.569782 0.12148,-2.337271 0.40312,-2.571011 0.30928,-0.256675 1.3474,-0.159814 4.51495,0.429995 2.26233,0.421257 4.19572,0.843108 4.29995,0.940614 0.10422,0.09751 0.2629,1.259351 0.34937,2.579968 0.0865,1.320617 0.19606,2.4314 0.24187,2.47247 0.0458,0.04107 1.37061,0.26723 2.94725,0.501661 1.57665,0.234433 2.99563,0.399278 3.1533,0.367287 0.15766,-0.03199 0.35116,-1.209338 0.42999,-2.615802 l 0.14334,-2.553094 6.30659,0 6.30659,0 0.14333,2.579969 c 0.0798,1.43642 0.27039,2.581688 0.42999,2.579969 0.15767,-0.0017 1.67006,-0.185062 3.35934,-0.403121 l 3.07267,-0.394161 0.0806,-2.597885 0.0806,-2.606844 4.2462,-0.815198 c 3.30832,-0.634532 4.34151,-0.737679 4.65828,-0.474786 0.28803,0.239046 0.41208,0.995977 0.41208,2.579969 l 0,2.230597 2.14101,-0.716657 2.13206,-0.716658 0.0896,-2.203724 0.0806,-2.194764 1.07498,-0.528535 1.07499,-0.519577 0,-8.2505248 0,-8.2505247 0.8152,-1.030196 c 0.4486,-0.564494 1.36436,-1.866438 2.03352,-2.8935065 l 1.21831,-1.863311 -1.45123,-2.096224 c -0.79859,-1.149832 -1.7977,-2.474262 -2.21268,-2.947256 -0.41498,-0.472994 -1.11309,-1.293654 -1.54977,-1.818519 l -0.78833,-0.949572 -1.54081,0.779365 c -0.84708,0.428183 -2.22791,1.213394 -3.06371,1.746854 -1.35312,0.863644 -1.5687,0.921688 -1.9529,0.537493 -0.66879,-0.668796 -3.56653,-2.839329 -4.76577,-3.565373 l -1.08395,-0.65395 0.19709,-3.198086 c 0.10572,-1.759668 0.20052,-3.447314 0.21499,-3.753496 0.0321,-0.678248 -3.04528,-2.08911 -6.56638,-3.009963 -2.69772,-0.705524 -2.33433,-0.966313 -4.31786,3.081629 l -1.36165,2.777049 -3.52954,-0.06271 -3.52954,-0.05375 -1.61248,-3.099545 c -0.88691,-1.70194 -1.65674,-3.141244 -1.71102,-3.198086 -0.0125,-0.01304 -0.0484,-0.01875 -0.0985,-0.01792 z m 22.54785,26.6507175 c 3.48187,-0.130546 6.94262,2.523955 6.94262,6.5842951 0,0.7984515 -0.17739,1.8730313 -0.39416,2.3918458 -0.58459,1.399117 -2.17265,3.0719113 -3.47579,3.6639137 -0.66559,0.3023695 -1.81008,0.519577 -2.7233,0.519577 -5.80918,0 -8.7809,-6.9130229 -4.78369,-11.1261146 1.26949,-1.338055 2.85165,-1.974177 4.43432,-2.033517 z m -30.71775,0.0089 c 4.12042,0.01519 7.59931,3.92614795 6.31555,8.3132322 -0.57132,1.9523798 -1.8061,3.4613489 -3.4758,4.2461983 -0.86512,0.4066575 -1.79664,0.5994127 -2.80392,0.5733264 -2.08674,-0.054019 -2.49217,-0.1703124 -3.79829,-1.0660287 -4.21366,-2.8896652 -3.7318,-9.2637982 0.85999,-11.4127772 0.96892,-0.453459 1.9516,-0.657457 2.90247,-0.653951 z m 0.76145,2.615802 c -2.02325,-0.03207 -4.085,1.36024495 -4.55078,3.8430778 -0.26881,1.4328687 0.84559,3.5123893 2.32018,4.3357805 1.42335,0.7947794 2.4874,0.819292 4.01328,0.080624 2.25384,-1.0910658 3.05875,-3.8281229 1.79165,-6.08263435 -0.82299,-1.46430695 -2.19001,-2.15490695 -3.57433,-2.17684795 z m 29.34714,0.0089 c -0.79867,0.04019 -1.56982,0.280373 -2.15893,0.707699 -1.14186,0.82828495 -2.14812,3.0354508 -1.92602,4.2193238 0.25179,1.3421398 1.26777,2.7376333 2.45455,3.3682923 1.28672,0.6837605 2.40378,0.6693098 3.87891,-0.044791 3.15241,-1.5260543 3.20632,-6.17674015 0.0896,-7.7667801 -0.70954,-0.361981 -1.53943,-0.523935 -2.3381,-0.483744 z m -14.7542,1.25415095 c 0.6033,-0.02482 1.22279,0.143435 1.64832,0.528535 0.53783,0.486728 0.59124,0.869086 0.59124,4.46119585 0,3.4378597 -0.0693,3.9828867 -0.52854,4.3984881 -0.73298,0.6633443 -2.37598,0.6083336 -3.14433,-0.1074987 -0.58253,-0.542705 -0.62708,-0.852737 -0.62708,-4.273073 0,-3.17203125 0.0756,-3.77433025 0.5375,-4.34473825 0.33724,-0.416479 0.91959,-0.63809 1.52289,-0.662909 z M 258.32762,11.480214 c -0.37954,0.198319 -0.25854,3.704232 0.17916,5.222644 0.69207,2.40083 1.89437,4.306745 3.9237,6.243882 2.20536,2.105166 3.86796,3.26428 6.76346,4.69411 4.132,2.040425 9.15589,3.47047 14.67357,4.183491 3.77334,0.487608 12.63423,0.323711 16.05314,-0.295622 13.38528,-2.424729 21.92513,-8.17815 23.51534,-15.83814 0.29647,-1.428102 0.25256,-3.644269 -0.0806,-3.977451 -0.0653,-0.06528 -0.78839,0.08043 -1.60353,0.322495 l -1.4781,0.438953 0,2.123099 c 0,1.543596 -0.11967,2.24277 -0.44791,2.571011 -0.24776,0.24776 -0.53801,0.445331 -0.645,0.447911 -0.10698,0.0026 -1.59048,0.449737 -3.28766,0.985405 -3.83275,1.209695 -3.93266,1.146131 -3.93266,-2.1231 l 0,-2.230597 -1.21832,0.232913 c -0.67008,0.131037 -1.96006,0.388011 -2.86663,0.564369 l -1.64832,0.313537 0,2.382888 c 0,1.561902 -0.12329,2.482661 -0.35833,2.669551 -0.45323,0.360384 -8.97041,1.535626 -9.54051,1.316859 -0.33243,-0.127568 -0.42103,-0.745941 -0.42103,-2.857674 l 0,-2.687467 -4.72994,0 -4.72995,0 0,2.687467 c 0,2.043986 -0.0984,2.731769 -0.40312,2.848716 -0.55102,0.211448 -9.11347,-0.968354 -9.55842,-1.316859 -0.23554,-0.184485 -0.35833,-1.099508 -0.35833,-2.669551 l 0,-2.382888 -1.07499,-0.188122 c -0.59126,-0.103821 -1.87813,-0.357234 -2.85769,-0.55541 l -1.78269,-0.358329 -0.0806,2.47247 c -0.0798,2.397008 -0.10211,2.472088 -0.79728,2.553094 -0.87184,0.101587 -6.92447,-1.840699 -7.22929,-2.320181 -0.11979,-0.188426 -0.22166,-1.272334 -0.22396,-2.409762 l 0,-2.06935 -1.79164,-0.537493 c -0.98541,-0.297115 -1.86972,-0.505008 -1.96185,-0.456869 z"
       id="path3030"
       inkscape:export-xdpi="50"
       inkscape:export-ydpi="50"
       inkscape:connector-curvature="0"
       inkscape:export-filename="/home/janist/Documents/godot/parallax-template/logo2.png" />
    <path
       transform="matrix(0.93442623,0,0,0.93442623,103.18033,-576.38609)"
       d="m 262,192.36218 a 61,61 0 1 1 -122,0 61,61 0 1 1 122,0 z"
       sodipodi:ry="61"
       sodipodi:rx="61"
       sodipodi:cy="192.36218"
       sodipodi:cx="201"
       id="path4734"
       style="fill:#ffffff;fill-opacity:1;stroke:none"
       sodipodi:type="arc"
       inkscape:export-filename="/home/janist/Documents/godot/parallax-template/logo.png"
       inkscape:export-xdpi="94.736839"
       inkscape:export-ydpi="94.736839" />
    <path
       inkscape:connector-curvature="0"
       inkscape:export-ydpi="94.736839"
       inkscape:export-xdpi="94.736839"
       id="path4736"
       d="m 283.90335,-428.38486 c -0.75201,0.0124 -5.5021,1.51939 -7.16658,2.29331 l -1.83644,0.85103 0.18812,2.49934 c 0.10427,1.37777 0.26735,3.04202 0.35833,3.69975 0.15676,1.13319 0.1132,1.22653 -0.79728,1.6931 -0.52846,0.27081 -1.99807,1.28794 -3.26975,2.26643 l -2.31122,1.78269 -2.8308,-1.67519 c -1.55735,-0.92162 -2.94,-1.67519 -3.06371,-1.67519 -0.32856,0 -3.24386,3.55563 -4.75682,5.80493 -1.50871,2.24299 -1.57757,1.88279 1.0929,5.60785 l 1.71102,2.38289 0,8.11615 0,8.12511 0.78833,0.19708 c 1.81614,0.44653 2.07831,0.84201 2.07831,3.14434 l 0,2.11414 2.14997,0.72561 2.14997,0.71666 0,-2.2306 c 0,-1.56978 0.12148,-2.33727 0.40312,-2.57101 0.30928,-0.25667 1.3474,-0.15981 4.51495,0.43 2.26233,0.42126 4.19572,0.84311 4.29995,0.94061 0.10422,0.0975 0.2629,1.25935 0.34937,2.57997 0.0865,1.32062 0.19606,2.4314 0.24187,2.47247 0.0458,0.0411 1.37061,0.26723 2.94725,0.50166 1.57665,0.23443 2.99563,0.39928 3.1533,0.36729 0.15766,-0.032 0.35116,-1.20934 0.42999,-2.6158 l 0.14334,-2.5531 6.30659,0 6.30659,0 0.14333,2.57997 c 0.0798,1.43642 0.27039,2.58169 0.42999,2.57997 0.15767,-0.002 1.67006,-0.18506 3.35934,-0.40312 l 3.07267,-0.39416 0.0806,-2.59789 0.0806,-2.60684 4.2462,-0.8152 c 3.30832,-0.63453 4.34151,-0.73768 4.65828,-0.47478 0.28803,0.23904 0.41208,0.99597 0.41208,2.57996 l 0,2.2306 2.14101,-0.71666 2.13206,-0.71665 0.0896,-2.20373 0.0806,-2.19476 1.07498,-0.52854 1.07499,-0.51957 0,-8.25053 0,-8.25052 0.8152,-1.0302 c 0.4486,-0.56449 1.36436,-1.86644 2.03352,-2.89351 l 1.21831,-1.86331 -1.45123,-2.09622 c -0.79859,-1.14983 -1.7977,-2.47426 -2.21268,-2.94726 -0.41498,-0.47299 -1.11309,-1.29365 -1.54977,-1.81852 l -0.78833,-0.94957 -1.54081,0.77937 c -0.84708,0.42818 -2.22791,1.21339 -3.06371,1.74685 -1.35312,0.86365 -1.5687,0.92169 -1.9529,0.53749 -0.66879,-0.66879 -3.56653,-2.83932 -4.76577,-3.56537 l -1.08395,-0.65395 0.19709,-3.19808 c 0.10572,-1.75967 0.20052,-3.44732 0.21499,-3.7535 0.0321,-0.67825 -3.04528,-2.08911 -6.56638,-3.00996 -2.69772,-0.70553 -2.33433,-0.96632 -4.31786,3.08163 l -1.36165,2.77704 -3.52954,-0.0627 -3.52954,-0.0537 -1.61248,-3.09954 c -0.88691,-1.70194 -1.65674,-3.14125 -1.71102,-3.19809 -0.0125,-0.013 -0.0484,-0.0188 -0.0985,-0.0179 z m 22.54785,26.65072 c 3.48187,-0.13055 6.94262,2.52395 6.94262,6.58429 0,0.79845 -0.17739,1.87303 -0.39416,2.39185 -0.58459,1.39911 -2.17265,3.07191 -3.47579,3.66391 -0.66559,0.30237 -1.81008,0.51958 -2.7233,0.51958 -5.80918,0 -8.7809,-6.91302 -4.78369,-11.12612 1.26949,-1.33805 2.85165,-1.97417 4.43432,-2.03351 z m -30.71775,0.009 c 4.12042,0.0152 7.59931,3.92614 6.31555,8.31323 -0.57132,1.95238 -1.8061,3.46135 -3.4758,4.2462 -0.86512,0.40665 -1.79664,0.59941 -2.80392,0.57332 -2.08674,-0.054 -2.49217,-0.17031 -3.79829,-1.06603 -4.21366,-2.88966 -3.7318,-9.26379 0.85999,-11.41277 0.96892,-0.45346 1.9516,-0.65746 2.90247,-0.65395 z m 0.76145,2.6158 c -2.02325,-0.0321 -4.085,1.36024 -4.55078,3.84308 -0.26881,1.43286 0.84559,3.51239 2.32018,4.33578 1.42335,0.79478 2.4874,0.81929 4.01328,0.0806 2.25384,-1.09107 3.05875,-3.82812 1.79165,-6.08263 -0.82299,-1.46431 -2.19001,-2.15491 -3.57433,-2.17685 z m 29.34714,0.009 c -0.79867,0.0402 -1.56982,0.28037 -2.15893,0.7077 -1.14186,0.82828 -2.14812,3.03545 -1.92602,4.21932 0.25179,1.34214 1.26777,2.73763 2.45455,3.36829 1.28672,0.68376 2.40378,0.66931 3.87891,-0.0448 3.15241,-1.52605 3.20632,-6.17674 0.0896,-7.76678 -0.70954,-0.36198 -1.53943,-0.52393 -2.3381,-0.48374 z m -14.7542,1.25415 c 0.6033,-0.0248 1.22279,0.14343 1.64832,0.52853 0.53783,0.48673 0.59124,0.86909 0.59124,4.4612 0,3.43786 -0.0693,3.98289 -0.52854,4.39849 -0.73298,0.66334 -2.37598,0.60833 -3.14433,-0.1075 -0.58253,-0.54271 -0.62708,-0.85274 -0.62708,-4.27307 0,-3.17203 0.0756,-3.77433 0.5375,-4.34474 0.33724,-0.41648 0.91959,-0.63809 1.52289,-0.66291 z m -32.76022,12.3266 c -0.37954,0.19832 -0.25854,3.70424 0.17916,5.22265 0.69207,2.40083 1.89437,4.30674 3.9237,6.24388 2.20536,2.10517 3.86796,3.26428 6.76346,4.69411 4.132,2.04043 9.15589,3.47047 14.67357,4.18349 3.77334,0.48761 12.63423,0.32371 16.05314,-0.29562 13.38528,-2.42473 21.92513,-8.17815 23.51534,-15.83814 0.29647,-1.4281 0.25256,-3.64427 -0.0806,-3.97745 -0.0653,-0.0653 -0.78839,0.0804 -1.60353,0.32249 l -1.4781,0.43896 0,2.12309 c 0,1.5436 -0.11967,2.24278 -0.44791,2.57102 -0.24776,0.24776 -0.53801,0.44533 -0.645,0.44791 -0.10698,0.003 -1.59048,0.44973 -3.28766,0.9854 -3.83275,1.2097 -3.93266,1.14613 -3.93266,-2.1231 l 0,-2.23059 -1.21832,0.23291 c -0.67008,0.13104 -1.96006,0.38801 -2.86663,0.56437 l -1.64832,0.31353 0,2.38289 c 0,1.5619 -0.12329,2.48266 -0.35833,2.66955 -0.45323,0.36039 -8.97041,1.53563 -9.54051,1.31686 -0.33243,-0.12757 -0.42103,-0.74594 -0.42103,-2.85767 l 0,-2.68747 -4.72994,0 -4.72995,0 0,2.68747 c 0,2.04398 -0.0984,2.73177 -0.40312,2.84871 -0.55102,0.21145 -9.11347,-0.96835 -9.55842,-1.31685 -0.23554,-0.18449 -0.35833,-1.09951 -0.35833,-2.66956 l 0,-2.38288 -1.07499,-0.18813 c -0.59126,-0.10382 -1.87813,-0.35723 -2.85769,-0.55541 l -1.78269,-0.35832 -0.0806,2.47247 c -0.0798,2.397 -0.10211,2.47208 -0.79728,2.55309 -0.87184,0.10159 -6.92447,-1.8407 -7.22929,-2.32018 -0.11979,-0.18843 -0.22166,-1.27234 -0.22396,-2.40976 l 0,-2.06935 -1.79164,-0.5375 c -0.98541,-0.29711 -1.86972,-0.505 -1.96185,-0.45687 z"
       style="fill:#468cbf;fill-opacity:1"
       inkscape:export-filename="/home/janist/Documents/godot/parallax-template/logo.png" />
    <path
       inkscape:export-ydpi="95.094337"
       inkscape:export-xdpi="95.094337"
       inkscape:export-filename="/home/janist/Documents/godot/parallax-template/logo4.png"
       transform="matrix(0.93442623,0,0,0.93442623,193.18033,-427.38609)"
       d="m 262,192.36218 a 61,61 0 1 1 -122,0 61,61 0 1 1 122,0 z"
       sodipodi:ry="61"
       sodipodi:rx="61"
       sodipodi:cy="192.36218"
       sodipodi:cx="201"
       id="path4738"
       style="fill:#ffffff;fill-opacity:1;stroke:none"
       sodipodi:type="arc" />
    <path
       inkscape:export-filename="/home/janist/Documents/godot/parallax-template/logo4.png"
       inkscape:connector-curvature="0"
       inkscape:export-ydpi="95.094337"
       inkscape:export-xdpi="95.094337"
       id="path4740"
       d="m 373.90335,-269.38486 c -0.75201,0.0124 -5.5021,1.51939 -7.16658,2.29331 l -1.83644,0.85103 0.18812,2.49934 c 0.10427,1.37777 0.26735,3.04202 0.35833,3.69975 0.15676,1.13319 0.1132,1.22653 -0.79728,1.6931 -0.52846,0.27081 -1.99807,1.28794 -3.26975,2.26643 l -2.31122,1.78269 -2.8308,-1.67519 c -1.55735,-0.92162 -2.94,-1.67519 -3.06371,-1.67519 -0.32856,0 -3.24386,3.55563 -4.75682,5.80493 -1.50871,2.24299 -1.57757,1.88279 1.0929,5.60785 l 1.71102,2.38289 0,8.11615 0,8.12511 0.78833,0.19708 c 1.81614,0.44653 2.07831,0.84201 2.07831,3.14434 l 0,2.11414 2.14997,0.72561 2.14997,0.71666 0,-2.2306 c 0,-1.56978 0.12148,-2.33727 0.40312,-2.57101 0.30928,-0.25667 1.3474,-0.15981 4.51495,0.43 2.26233,0.42126 4.19572,0.84311 4.29995,0.94061 0.10422,0.0975 0.2629,1.25935 0.34937,2.57997 0.0865,1.32062 0.19606,2.4314 0.24187,2.47247 0.0458,0.0411 1.37061,0.26723 2.94725,0.50166 1.57665,0.23443 2.99563,0.39928 3.1533,0.36729 0.15766,-0.032 0.35116,-1.20934 0.42999,-2.6158 l 0.14334,-2.5531 6.30659,0 6.30659,0 0.14333,2.57997 c 0.0798,1.43642 0.27039,2.58169 0.42999,2.57997 0.15767,-0.002 1.67006,-0.18506 3.35934,-0.40312 l 3.07267,-0.39416 0.0806,-2.59789 0.0806,-2.60684 4.2462,-0.8152 c 3.30832,-0.63453 4.34151,-0.73768 4.65828,-0.47478 0.28803,0.23904 0.41208,0.99597 0.41208,2.57996 l 0,2.2306 2.14101,-0.71666 2.13206,-0.71665 0.0896,-2.20373 0.0806,-2.19476 1.07498,-0.52854 1.07499,-0.51957 0,-8.25053 0,-8.25052 0.8152,-1.0302 c 0.4486,-0.56449 1.36436,-1.86644 2.03352,-2.89351 l 1.21831,-1.86331 -1.45123,-2.09622 c -0.79859,-1.14983 -1.7977,-2.47426 -2.21268,-2.94726 -0.41498,-0.47299 -1.11309,-1.29365 -1.54977,-1.81852 l -0.78833,-0.94957 -1.54081,0.77937 c -0.84708,0.42818 -2.22791,1.21339 -3.06371,1.74685 -1.35312,0.86365 -1.5687,0.92169 -1.9529,0.53749 -0.66879,-0.66879 -3.56653,-2.83932 -4.76577,-3.56537 l -1.08395,-0.65395 0.19709,-3.19808 c 0.10572,-1.75967 0.20052,-3.44732 0.21499,-3.7535 0.0321,-0.67825 -3.04528,-2.08911 -6.56638,-3.00996 -2.69772,-0.70553 -2.33433,-0.96632 -4.31786,3.08163 l -1.36165,2.77704 -3.52954,-0.0627 -3.52954,-0.0537 -1.61248,-3.09954 c -0.88691,-1.70194 -1.65674,-3.14125 -1.71102,-3.19809 -0.0125,-0.013 -0.0484,-0.0188 -0.0985,-0.0179 z m 22.54785,26.65072 c 3.48187,-0.13055 6.94262,2.52395 6.94262,6.58429 0,0.79845 -0.17739,1.87303 -0.39416,2.39185 -0.58459,1.39911 -2.17265,3.07191 -3.47579,3.66391 -0.66559,0.30237 -1.81008,0.51958 -2.7233,0.51958 -5.80918,0 -8.7809,-6.91302 -4.78369,-11.12612 1.26949,-1.33805 2.85165,-1.97417 4.43432,-2.03351 z m -30.71775,0.009 c 4.12042,0.0152 7.59931,3.92614 6.31555,8.31323 -0.57132,1.95238 -1.8061,3.46135 -3.4758,4.2462 -0.86512,0.40665 -1.79664,0.59941 -2.80392,0.57332 -2.08674,-0.054 -2.49217,-0.17031 -3.79829,-1.06603 -4.21366,-2.88966 -3.7318,-9.26379 0.85999,-11.41277 0.96892,-0.45346 1.9516,-0.65746 2.90247,-0.65395 z m 0.76145,2.6158 c -2.02325,-0.0321 -4.085,1.36024 -4.55078,3.84308 -0.26881,1.43287 0.84559,3.51239 2.32018,4.33578 1.42335,0.79478 2.4874,0.81929 4.01328,0.0806 2.25384,-1.09106 3.05875,-3.82812 1.79165,-6.08263 -0.82299,-1.46431 -2.19001,-2.15491 -3.57433,-2.17685 z m 29.34714,0.009 c -0.79867,0.0402 -1.56982,0.28037 -2.15893,0.7077 -1.14186,0.82828 -2.14812,3.03545 -1.92602,4.21932 0.25179,1.34214 1.26777,2.73763 2.45455,3.36829 1.28672,0.68376 2.40378,0.66931 3.87891,-0.0448 3.15241,-1.52605 3.20632,-6.17674 0.0896,-7.76678 -0.70954,-0.36198 -1.53943,-0.52393 -2.3381,-0.48374 z m -14.7542,1.25415 c 0.6033,-0.0248 1.22279,0.14343 1.64832,0.52853 0.53783,0.48673 0.59124,0.86909 0.59124,4.4612 0,3.43786 -0.0693,3.98289 -0.52854,4.39849 -0.73298,0.66334 -2.37598,0.60833 -3.14433,-0.1075 -0.58253,-0.54271 -0.62708,-0.85274 -0.62708,-4.27307 0,-3.17203 0.0756,-3.77433 0.5375,-4.34474 0.33724,-0.41648 0.91959,-0.63809 1.52289,-0.66291 z m -32.76022,12.3266 c -0.37954,0.19832 -0.25854,3.70424 0.17916,5.22265 0.69207,2.40083 1.89437,4.30674 3.9237,6.24388 2.20536,2.10517 3.86796,3.26428 6.76346,4.69411 4.132,2.04043 9.15589,3.47047 14.67357,4.18349 3.77334,0.48761 12.63423,0.32371 16.05314,-0.29562 13.38528,-2.42473 21.92513,-8.17815 23.51534,-15.83814 0.29647,-1.4281 0.25256,-3.64427 -0.0806,-3.97745 -0.0653,-0.0653 -0.78839,0.0804 -1.60353,0.32249 l -1.4781,0.43896 0,2.1231 c 0,1.54359 -0.11967,2.24277 -0.44791,2.57101 -0.24776,0.24776 -0.53801,0.44533 -0.645,0.44791 -0.10698,0.003 -1.59048,0.44973 -3.28766,0.9854 -3.83275,1.2097 -3.93266,1.14613 -3.93266,-2.1231 l 0,-2.23059 -1.21832,0.23291 c -0.67008,0.13104 -1.96006,0.38801 -2.86663,0.56437 l -1.64832,0.31353 0,2.38289 c 0,1.5619 -0.12329,2.48266 -0.35833,2.66955 -0.45323,0.36039 -8.97041,1.53563 -9.54051,1.31686 -0.33243,-0.12757 -0.42103,-0.74594 -0.42103,-2.85767 l 0,-2.68747 -4.72994,0 -4.72995,0 0,2.68747 c 0,2.04398 -0.0984,2.73177 -0.40312,2.84871 -0.55102,0.21145 -9.11347,-0.96835 -9.55842,-1.31685 -0.23554,-0.18449 -0.35833,-1.09951 -0.35833,-2.66956 l 0,-2.38288 -1.07499,-0.18813 c -0.59126,-0.10382 -1.87813,-0.35723 -2.85769,-0.55541 l -1.78269,-0.35832 -0.0806,2.47247 c -0.0798,2.397 -0.10211,2.47208 -0.79728,2.55309 -0.87184,0.10159 -6.92447,-1.8407 -7.22929,-2.32018 -0.11979,-0.18843 -0.22166,-1.27234 -0.22396,-2.40976 l 0,-2.06935 -1.79164,-0.5375 c -0.98541,-0.29711 -1.86972,-0.505 -1.96185,-0.45687 z"
       style="fill:#468cbf;fill-opacity:1" />
    <path
       inkscape:export-filename="D:\projects\godot\godot_style\parallax-template\assets\img\godot-guy-bullet.png"
       inkscape:connector-curvature="0"
       inkscape:export-ydpi="43.034386"
       inkscape:export-xdpi="43.034386"
       id="path4713"
       d="m 23.620915,-307.01454 c -0.64402,0.0112 -4.711992,1.30121 -6.137452,1.96399 l -1.572725,0.72882 0.161106,2.14043 c 0.0893,1.17992 0.228958,2.60519 0.306873,3.16847 0.13425,0.97046 0.09694,1.0504 -0.68279,1.44997 -0.452572,0.23191 -1.711144,1.10299 -2.800209,1.94096 l -1.979327,1.5267 -2.4242934,-1.43464 c -1.3337127,-0.78928 -2.5178137,-1.43462 -2.6237587,-1.43462 -0.2813789,0 -2.7780385,3.04503 -4.0737362,4.97134 -1.29205774,1.92088 -1.35102954,1.61241 0.9359584,4.80255 l 1.4653157,2.0407 0,6.95066 0,6.95834 0.6751252,0.16877 c 1.5553409,0.38242 1.7798629,0.72111 1.7798629,2.69282 l 0,1.81054 1.8412327,0.62142 1.8412314,0.61375 0,-1.91029 c 0,-1.34436 0.104036,-2.00164 0.345231,-2.20181 0.264867,-0.21981 1.153912,-0.13686 3.866599,0.36826 1.937457,0.36076 3.59321,0.72202 3.682473,0.80553 0.08925,0.0835 0.225147,1.07851 0.2992,2.20948 0.07408,1.13098 0.167906,2.08225 0.207137,2.11743 0.03923,0.0352 1.173789,0.22885 2.524022,0.42962 1.350241,0.20076 2.565454,0.34193 2.700483,0.31454 0.13502,-0.0274 0.300732,-1.03567 0.368242,-2.24017 l 0.122752,-2.18647 5.400957,0 5.400958,0 0.122752,2.20949 c 0.06835,1.23015 0.231562,2.21096 0.368243,2.20948 0.135029,-10e-4 1.430238,-0.15848 2.876935,-0.34524 l 2.631432,-0.33755 0.06903,-2.22484 0.06903,-2.23248 3.636439,-0.69815 c 2.833241,-0.54341 3.718064,-0.63174 3.989346,-0.40659 0.246669,0.20471 0.352904,0.85294 0.352904,2.20947 l 0,1.91029 1.83356,-0.61375 1.825893,-0.61374 0.07673,-1.88727 0.06903,-1.87959 0.920612,-0.45264 0.92062,-0.44496 0,-7.06575 0,-7.06574 0.698136,-0.88226 c 0.384181,-0.48343 1.168437,-1.59842 1.741505,-2.478 l 1.043359,-1.59573 -1.242831,-1.7952 c -0.683912,-0.98472 -1.539549,-2.11895 -1.894938,-2.52403 -0.355387,-0.40507 -0.953249,-1.10788 -1.327221,-1.55739 l -0.675125,-0.81321 -1.319547,0.66746 c -0.72544,0.36669 -1.907981,1.03914 -2.623759,1.496 -1.158811,0.73962 -1.343433,0.78933 -1.672462,0.46031 -0.572751,-0.57276 -3.054373,-2.4316 -4.0814,-3.05339 l -0.928294,-0.56003 0.168788,-2.73884 c 0.09053,-1.50697 0.171725,-2.95229 0.184117,-3.21449 0.02749,-0.58086 -2.607973,-1.78911 -5.623439,-2.57773 -2.310324,-0.60422 -1.999118,-0.82756 -3.69781,2.63911 l -1.166117,2.37824 -3.022694,-0.0536 -3.022694,-0.046 -1.380926,-2.65444 c -0.759549,-1.45754 -1.41883,-2.69016 -1.465315,-2.73883 -0.0107,-0.0112 -0.04145,-0.0161 -0.08436,-0.0153 z m 19.309954,22.82365 c 2.981869,-0.11175 5.945652,2.1615 5.945652,5.63878 0,0.68379 -0.151917,1.60405 -0.337558,2.04837 -0.500642,1.1982 -1.860655,2.63078 -2.976663,3.13777 -0.570011,0.25896 -1.550151,0.44498 -2.332231,0.44498 -4.974974,0 -7.519952,-5.92031 -4.096745,-9.52841 1.087189,-1.1459 2.44215,-1.69067 3.797545,-1.74149 z m -26.306648,0.007 c 3.528724,0.0131 6.508042,3.36234 5.408631,7.11944 -0.489278,1.67202 -1.546743,2.9643 -2.976671,3.63645 -0.740888,0.34824 -1.538641,0.51333 -2.401274,0.49098 -1.787082,-0.0463 -2.134292,-0.14585 -3.252852,-0.91294 -3.6085744,-2.4747 -3.19591,-7.9335 0.736494,-9.77388 0.829782,-0.38834 1.671348,-0.56305 2.485672,-0.56005 z m 0.652106,2.24017 c -1.73271,-0.0275 -3.49839,1.1649 -3.897284,3.29121 -0.230209,1.22711 0.724162,3.008 1.987001,3.71315 1.218955,0.68065 2.130206,0.70165 3.436968,0.0691 1.930186,-0.93438 2.61951,-3.2784 1.534368,-5.20916 -0.704808,-1.25403 -1.875524,-1.84546 -3.061053,-1.86425 z m 25.132857,0.007 c -0.683977,0.0345 -1.344389,0.2401 -1.848902,0.60607 -0.977888,0.70935 -1.839649,2.59956 -1.649441,3.61342 0.215632,1.14941 1.085716,2.34451 2.102073,2.8846 1.101946,0.58557 2.058592,0.5732 3.321892,-0.0383 2.699721,-1.3069 2.74589,-5.28975 0.07673,-6.65146 -0.607651,-0.30999 -1.318367,-0.44868 -2.002348,-0.41427 z m -12.635479,1.07406 c 0.516665,-0.0213 1.047196,0.12282 1.411619,0.45263 0.460598,0.41683 0.506338,0.74429 0.506338,3.82057 0,2.94417 -0.05935,3.41093 -0.452641,3.76686 -0.627723,0.56807 -2.034786,0.52097 -2.6928,-0.0921 -0.498878,-0.46478 -0.537032,-0.73029 -0.537032,-3.65945 0,-2.71653 0.06475,-3.23234 0.460315,-3.72083 0.288812,-0.35667 0.787536,-0.54646 1.304201,-0.56772 z m -28.0558186,10.55648 c -0.3250367,0.16984 -0.221413,3.17231 0.1534326,4.47267 0.5926882,2.05607 1.6223372,3.68829 3.3602523,5.34726 1.8886686,1.80286 3.3125173,2.79552 5.7922207,4.02003 3.538641,1.74742 7.841095,2.97211 12.56643,3.58273 3.231485,0.4176 10.819942,0.27722 13.747892,-0.25317 11.463138,-2.07653 18.776657,-7.00375 20.138512,-13.56376 0.253895,-1.22303 0.216292,-3.12095 -0.06903,-3.40629 -0.05593,-0.0559 -0.675176,0.0688 -1.373261,0.27618 l -1.265842,0.37593 0,1.81822 c 0,1.32193 -0.10248,1.92071 -0.383591,2.20181 -0.212181,0.21218 -0.46075,0.38138 -0.552376,0.38359 -0.09162,0.002 -1.362087,0.38514 -2.815549,0.8439 -3.282364,1.03598 -3.367927,0.98154 -3.367927,-1.81823 l 0,-1.91027 -1.043368,0.19946 c -0.573856,0.11225 -1.678593,0.33229 -2.454978,0.48333 l -1.41162,0.2685 0,2.04071 c 0,1.33761 -0.105591,2.12614 -0.306873,2.2862 -0.388144,0.30864 -7.682248,1.31511 -8.170481,1.12776 -0.284693,-0.10926 -0.360569,-0.63883 -0.360569,-2.4473 l 0,-2.30156 -4.050716,0 -4.050725,0 0,2.30156 c 0,1.75046 -0.08427,2.33948 -0.345231,2.43962 -0.471893,0.18109 -7.804767,-0.82929 -8.185821,-1.12774 -0.201717,-0.158 -0.306874,-0.94162 -0.306874,-2.28621 l 0,-2.0407 -0.92062,-0.16111 c -0.506354,-0.0889 -1.608428,-0.30593 -2.447323,-0.47565 l -1.526694,-0.30687 -0.06903,2.11743 c -0.06834,2.05278 -0.08745,2.11708 -0.68279,2.18645 -0.746642,0.087 -5.9301088,-1.57637 -6.1911561,-1.987 -0.1025921,-0.16136 -0.1898289,-1.08963 -0.1917989,-2.06371 l 0,-1.77219 -1.5343587,-0.46032 c -0.8439043,-0.25444 -1.6012264,-0.43248 -1.6801267,-0.39126 z"
       style="fill:#dddddd;fill-opacity:1" />
    <path
       style="fill:#468cbf;fill-opacity:1"
       d="m -326.72616,-464.66408 c -0.75201,0.0124 -5.5021,1.51939 -7.16658,2.29331 l -1.83644,0.85103 0.18812,2.49934 c 0.10427,1.37777 0.26735,3.04202 0.35833,3.69975 0.15676,1.13319 0.1132,1.22653 -0.79728,1.6931 -0.52846,0.27081 -1.99807,1.28794 -3.26975,2.26643 l -2.31122,1.78269 -2.8308,-1.67519 c -1.55735,-0.92162 -2.94,-1.67519 -3.06371,-1.67519 -0.32856,0 -3.24386,3.55563 -4.75682,5.80493 -1.50871,2.24299 -1.57757,1.88279 1.0929,5.60785 l 1.71102,2.38289 0,8.11615 0,8.12511 0.78833,0.19708 c 1.81614,0.44653 2.07831,0.84201 2.07831,3.14434 l 0,2.11414 2.14997,0.72561 2.14997,0.71666 0,-2.2306 c 0,-1.56978 0.12148,-2.33727 0.40312,-2.57101 0.30928,-0.25667 1.3474,-0.15981 4.51495,0.43 2.26233,0.42126 4.19572,0.84311 4.29995,0.94061 0.10422,0.0975 0.2629,1.25935 0.34937,2.57997 0.0865,1.32062 0.19606,2.4314 0.24187,2.47247 0.0458,0.0411 1.37061,0.26723 2.94725,0.50166 1.57665,0.23443 2.99563,0.39928 3.1533,0.36729 0.15766,-0.032 0.35116,-1.20934 0.42999,-2.6158 l 0.14334,-2.5531 6.30659,0 6.30659,0 0.14333,2.57997 c 0.0798,1.43642 0.27039,2.58169 0.42999,2.57997 0.15767,-0.002 1.67006,-0.18506 3.35934,-0.40312 l 3.07267,-0.39416 0.0806,-2.59789 0.0806,-2.60684 4.2462,-0.8152 c 3.30832,-0.63453 4.34151,-0.73768 4.65828,-0.47478 0.28803,0.23904 0.41208,0.99597 0.41208,2.57996 l 0,2.2306 2.14101,-0.71666 2.13206,-0.71665 0.0896,-2.20373 0.0806,-2.19476 1.07498,-0.52854 1.07499,-0.51957 0,-8.25053 0,-8.25052 0.8152,-1.0302 c 0.4486,-0.56449 1.36436,-1.86644 2.03352,-2.89351 l 1.21831,-1.86331 -1.45123,-2.09622 c -0.79859,-1.14983 -1.7977,-2.47426 -2.21268,-2.94726 -0.41498,-0.47299 -1.11309,-1.29365 -1.54977,-1.81852 l -0.78833,-0.94957 -1.54081,0.77937 c -0.84708,0.42818 -2.22791,1.21339 -3.06371,1.74685 -1.35312,0.86365 -1.5687,0.92169 -1.9529,0.53749 -0.66879,-0.66879 -3.56653,-2.83932 -4.76577,-3.56537 l -1.08395,-0.65395 0.19709,-3.19808 c 0.10572,-1.75967 0.20052,-3.44732 0.21499,-3.7535 0.0321,-0.67825 -3.04528,-2.08911 -6.56638,-3.00996 -2.69772,-0.70553 -2.33433,-0.96632 -4.31786,3.08163 l -1.36165,2.77704 -3.52954,-0.0627 -3.52954,-0.0537 -1.61248,-3.09954 c -0.88691,-1.70194 -1.65674,-3.14125 -1.71102,-3.19809 -0.0125,-0.013 -0.0484,-0.0188 -0.0985,-0.0179 z m 22.54785,26.65072 c 3.48187,-0.13055 6.94262,2.52395 6.94262,6.58429 0,0.79845 -0.17739,1.87303 -0.39416,2.39185 -0.58459,1.39911 -2.17265,3.07191 -3.47579,3.66391 -0.66559,0.30237 -1.81008,0.51958 -2.7233,0.51958 -5.80918,0 -8.7809,-6.91302 -4.78369,-11.12612 1.26949,-1.33805 2.85165,-1.97417 4.43432,-2.03351 z m -30.71775,0.009 c 4.12042,0.0152 7.59931,3.92614 6.31555,8.31323 -0.57132,1.95238 -1.8061,3.46135 -3.4758,4.2462 -0.86512,0.40665 -1.79664,0.59941 -2.80392,0.57332 -2.08674,-0.054 -2.49217,-0.17031 -3.79829,-1.06603 -4.21366,-2.88966 -3.7318,-9.26379 0.85999,-11.41277 0.96892,-0.45346 1.9516,-0.65746 2.90247,-0.65395 z m 0.76145,2.6158 c -2.02325,-0.0321 -4.085,1.36024 -4.55078,3.84308 -0.26881,1.43287 0.84559,3.51239 2.32018,4.33578 1.42335,0.79478 2.4874,0.81929 4.01328,0.0806 2.25384,-1.09106 3.05875,-3.82812 1.79165,-6.08263 -0.82299,-1.46431 -2.19001,-2.15491 -3.57433,-2.17685 z m 29.34714,0.009 c -0.79867,0.0402 -1.56982,0.28037 -2.15893,0.7077 -1.14186,0.82828 -2.14812,3.03545 -1.92602,4.21932 0.25179,1.34214 1.26777,2.73763 2.45455,3.36829 1.28672,0.68376 2.40378,0.66931 3.87891,-0.0448 3.15241,-1.52605 3.20632,-6.17674 0.0896,-7.76678 -0.70954,-0.36198 -1.53943,-0.52393 -2.3381,-0.48374 z m -14.7542,1.25415 c 0.6033,-0.0248 1.22279,0.14343 1.64832,0.52853 0.53783,0.48673 0.59124,0.86909 0.59124,4.4612 0,3.43786 -0.0693,3.98289 -0.52854,4.39849 -0.73298,0.66334 -2.37598,0.60833 -3.14433,-0.1075 -0.58253,-0.54271 -0.62708,-0.85274 -0.62708,-4.27307 0,-3.17203 0.0756,-3.77433 0.5375,-4.34474 0.33724,-0.41648 0.91959,-0.63809 1.52289,-0.66291 z m -32.76022,12.3266 c -0.37954,0.19832 -0.25854,3.70424 0.17916,5.22265 0.69207,2.40083 1.89437,4.30674 3.9237,6.24388 2.20536,2.10517 3.86796,3.26428 6.76346,4.69411 4.132,2.04043 9.15589,3.47047 14.67357,4.18349 3.77334,0.48761 12.63423,0.32371 16.05314,-0.29562 13.38528,-2.42473 21.92513,-8.17815 23.51534,-15.83814 0.29647,-1.4281 0.25256,-3.64427 -0.0806,-3.97745 -0.0653,-0.0653 -0.78839,0.0804 -1.60353,0.32249 l -1.4781,0.43896 0,2.1231 c 0,1.54359 -0.11967,2.24277 -0.44791,2.57101 -0.24776,0.24776 -0.53801,0.44533 -0.645,0.44791 -0.10698,0.003 -1.59048,0.44973 -3.28766,0.9854 -3.83275,1.2097 -3.93266,1.14613 -3.93266,-2.1231 l 0,-2.23059 -1.21832,0.23291 c -0.67008,0.13104 -1.96006,0.38801 -2.86663,0.56437 l -1.64832,0.31353 0,2.38289 c 0,1.5619 -0.12329,2.48266 -0.35833,2.66955 -0.45323,0.36039 -8.97041,1.53563 -9.54051,1.31686 -0.33243,-0.12757 -0.42103,-0.74594 -0.42103,-2.85767 l 0,-2.68747 -4.72994,0 -4.72995,0 0,2.68747 c 0,2.04398 -0.0984,2.73177 -0.40312,2.84871 -0.55102,0.21145 -9.11347,-0.96835 -9.55842,-1.31685 -0.23554,-0.18449 -0.35833,-1.09951 -0.35833,-2.66956 l 0,-2.38288 -1.07499,-0.18813 c -0.59126,-0.10382 -1.87813,-0.35723 -2.85769,-0.55541 l -1.78269,-0.35832 -0.0806,2.47247 c -0.0798,2.397 -0.10211,2.47208 -0.79728,2.55309 -0.87184,0.10159 -6.92447,-1.8407 -7.22929,-2.32018 -0.11979,-0.18843 -0.22166,-1.27234 -0.22396,-2.40976 l 0,-2.06935 -1.79164,-0.5375 c -0.98541,-0.29711 -1.86972,-0.505 -1.96185,-0.45687 z"
       id="path4744"
       inkscape:export-xdpi="95.094337"
       inkscape:export-ydpi="95.094337"
       inkscape:connector-curvature="0"
       inkscape:export-filename="/home/janist/Documents/godot/parallax-template/logo2.png" />
    <rect
       style="opacity:1;fill:#000000;fill-opacity:0;stroke:none"
       id="rect4748"
       width="71"
       height="93"
       x="-325"
       y="-413.63782" />
    <path
       style="fill:none;stroke:#468cbf;stroke-width:15;stroke-linecap:butt;stroke-linejoin:miter;stroke-miterlimit:4;stroke-opacity:1;stroke-dasharray:30, 15;stroke-dashoffset:0"
       d="m -60.42883,-501.57753 c 43.005339,-43.13221 72.84202,-60.3259 117.24555,-64.41023 50.57755,-4.65223 94.05951,51.80361 144.6904,47.77312 36.70268,-2.92173 61.28251,-49.7698 98.08719,-50.7889 41.27947,-1.14301 71.90584,46.68237 112.99644,50.7889 23.75319,2.37386 69.83808,-15.85201 69.83808,-15.85201"
       id="path4750"
       inkscape:connector-curvature="0"
       sodipodi:nodetypes="caaaac" />
    <path
       inkscape:export-filename="/home/janist/Documents/godot/parallax-template/logo2.png"
       inkscape:connector-curvature="0"
       inkscape:export-ydpi="95.094337"
       inkscape:export-xdpi="95.094337"
       id="path4752"
       d="m 254.57682,-629.40092 c -0.64718,-0.38319 -5.48314,-1.58645 -7.30644,-1.79862 l -2.01018,-0.23652 -1.14839,2.22784 c -0.63257,1.22841 -1.36504,2.73167 -1.63192,3.33967 -0.45978,1.04752 -0.54577,1.10423 -1.56576,1.025 -0.59203,-0.046 -2.37665,0.0511 -3.97241,0.21887 l -2.9025,0.30862 -1.5346,-2.90941 c -0.84424,-1.60062 -1.62764,-2.96659 -1.73303,-3.03137 -0.27992,-0.17203 -4.62539,1.33077 -7.09211,2.4549 -2.4598,1.12098 -2.32987,0.77805 -2.00518,5.34993 l 0.21004,2.92603 -4.24964,6.91465 -4.25432,6.92229 0.56843,0.58068 c 1.31348,1.33136 1.32977,1.80557 0.12426,3.76707 l -1.10697,1.80117 1.45176,1.74392 1.45645,1.7363 1.16795,-1.90039 c 0.82194,-1.3374 1.3273,-1.92766 1.68963,-1.97933 0.39789,-0.0567 1.23161,0.56935 3.62142,2.73038 1.70685,1.54346 3.13314,2.91519 3.17089,3.05283 0.0377,0.13764 -0.43542,1.21058 -1.05323,2.38097 -0.61778,1.17041 -1.10605,2.17412 -1.08852,2.2331 0.0175,0.059 1.02778,0.94532 2.24827,1.97058 1.2205,1.02526 2.3431,1.90869 2.49418,1.96399 0.15108,0.0553 0.93239,-0.84644 1.73598,-2.00342 l 1.45893,-2.10009 5.37298,3.30215 5.37298,3.30214 -1.22877,2.27309 c -0.68413,1.26556 -1.12142,2.34108 -0.98454,2.42318 0.13537,0.0808 1.51972,0.71678 3.0731,1.41552 l 2.82419,1.27304 1.42893,-2.1711 1.43361,-2.17873 4.04445,1.5288 c 3.1508,1.19165 4.08505,1.64475 4.21727,2.0346 0.12023,0.35446 -0.17041,1.06429 -0.99979,2.41379 l -1.16795,1.90039 2.1993,0.51047 2.19168,0.50579 1.23021,-1.83058 1.21785,-1.82765 1.19259,0.11257 1.1879,0.12021 4.32,-7.02914 4.31999,-7.02914 1.23394,-0.45085 c 0.67776,-0.24604 2.13966,-0.87575 3.24753,-1.40041 l 2.01359,-0.94956 -0.13881,-2.54576 c -0.0783,-1.39776 -0.23604,-3.04926 -0.34193,-3.66952 -0.10589,-0.62026 -0.27095,-1.68496 -0.36816,-2.36078 l -0.17443,-1.22177 -1.72079,-0.14278 c -0.94588,-0.0787 -2.53343,-0.13277 -3.52483,-0.11591 -1.60501,0.0273 -1.81907,-0.0361 -1.94522,-0.56462 -0.21961,-0.91997 -1.55188,-4.28644 -2.19343,-5.53294 l -0.58107,-1.1247 1.84243,-2.62144 c 1.01144,-1.44382 1.97587,-2.832 2.14851,-3.08528 0.38248,-0.56103 -1.5006,-3.37436 -4.01829,-6.00254 -1.92894,-2.01362 -1.48279,-2.04553 -5.2922,0.36459 l -2.61414,1.65297 -2.97421,-1.90149 -2.97892,-1.89383 0.24916,-3.48499 c 0.13552,-1.91438 0.23328,-3.5437 0.2168,-3.62055 -0.004,-0.0176 -0.0314,-0.0414 -0.0745,-0.0668 z m 5.25554,34.51153 c 3.03478,1.71189 4.59331,5.78549 2.4673,9.24474 -0.41807,0.68025 -1.13185,1.50287 -1.58819,1.83139 -1.23062,0.88589 -3.45947,1.47954 -4.87967,1.30158 -0.72538,-0.0909 -1.81418,-0.5051 -2.5922,-0.98326 -4.94921,-3.04171 -3.86133,-10.48734 1.75013,-11.9838 1.78217,-0.47526 3.46318,-0.18878 4.84263,0.58935 z m -26.17509,-16.07622 c 3.50249,2.17041 4.41859,7.32394 1.02779,10.3894 -1.50902,1.36421 -3.3511,2.00326 -5.18458,1.79766 -0.94997,-0.10653 -1.84452,-0.43005 -2.68902,-0.97969 -1.74955,-1.13863 -2.03406,-1.45 -2.67783,-2.89701 -2.07685,-4.66817 1.67119,-9.84638 6.70844,-9.27296 1.06291,0.121 2.00693,0.46173 2.8152,0.9626 z m -0.72091,2.62726 c -1.70693,-1.08673 -4.19249,-0.98004 -5.88934,0.89136 -0.97927,1.08 -1.11869,3.43518 -0.29352,4.90877 0.79649,1.4224 1.69019,2.00042 3.37696,2.17004 2.49147,0.25057 4.61036,-1.65985 4.7113,-4.24407 0.0656,-1.67845 -0.73749,-2.98259 -1.90539,-3.72612 z m 24.99795,15.3739 c -0.70148,-0.38393 -1.48423,-0.58309 -2.20988,-0.52748 -1.40651,0.10778 -3.41948,1.46132 -3.85014,2.58623 -0.48823,1.27529 -0.35334,2.99617 0.32754,4.15487 0.73822,1.25626 1.69748,1.82885 3.32814,1.99283 3.48478,0.35048 5.96583,-3.58351 4.14305,-6.57009 -0.41497,-0.67991 -1.03721,-1.25242 -1.73869,-1.63636 z m -13.2267,-6.65684 c 0.52698,0.29476 0.96667,0.76245 1.12757,1.31335 0.20336,0.69628 0.0487,1.05 -1.83218,4.11035 -1.80007,2.92893 -2.14449,3.35699 -2.75336,3.4706 -0.9718,0.18135 -2.34277,-0.72579 -2.62256,-1.73796 -0.21213,-0.76739 -0.0878,-1.05485 1.70314,-3.96884 1.66088,-2.70245 2.04065,-3.176 2.73284,-3.42012 0.50539,-0.17825 1.11757,-0.0621 1.64455,0.23262 z m -34.36472,-6.65154 c -0.4272,-0.0298 -2.15982,3.02051 -2.58196,4.54332 -0.66746,2.40778 -0.64108,4.66107 0.0735,7.37401 0.77661,2.94826 1.58617,4.80632 3.30436,7.54057 2.45194,3.90189 5.98333,7.75076 10.31085,11.24729 2.95943,2.39116 10.5944,6.89111 13.83147,8.15361 12.67335,4.94279 22.96149,4.51258 28.32708,-1.18081 1.00034,-1.06146 2.12332,-2.97254 2.01393,-3.43084 -0.0214,-0.0898 -0.71377,-0.34431 -1.535,-0.56487 l -1.48913,-0.39995 -1.11166,1.8088 c -0.80823,1.31508 -1.27627,1.84809 -1.72779,1.95588 -0.34081,0.0814 -0.69154,0.0977 -0.78404,0.0439 -0.0927,-0.0534 -1.59051,-0.44962 -3.31692,-0.8819 -3.89876,-0.97622 -3.9506,-1.08269 -2.23882,-3.86795 l 1.16794,-1.90038 -1.15991,-0.43949 c -0.6395,-0.23921 -1.87307,-0.69572 -2.73777,-1.02015 l -1.56847,-0.59595 -1.24769,2.03014 c -0.81782,1.33068 -1.40497,2.05058 -1.70307,2.08673 -0.57483,0.0697 -8.44651,-3.38863 -8.81767,-3.87352 -0.21642,-0.28274 0.0319,-0.85596 1.13758,-2.65508 l 1.40717,-2.28962 -4.02973,-2.47661 -4.02974,-2.47662 -1.40717,2.28963 c -1.07023,1.74139 -1.51419,2.27584 -1.83503,2.21592 -0.58017,-0.10837 -7.25731,-5.59684 -7.45392,-6.12672 -0.10407,-0.28051 0.27043,-1.12437 1.09251,-2.46199 l 1.24768,-2.03012 -0.81735,-0.72315 c -0.44937,-0.39804 -1.41305,-1.28774 -2.14383,-1.96948 l -1.33116,-1.2387 -1.36326,2.06425 c -1.32307,2.00037 -1.38139,2.05265 -2.01606,1.75768 -0.79597,-0.36995 -4.9356,-5.19388 -4.94423,-5.76198 -0.003,-0.22326 0.47735,-1.20005 1.07095,-2.17029 l 1.08351,-1.76301 -1.24497,-1.39604 c -0.68397,-0.76909 -1.32851,-1.40923 -1.43221,-1.41647 z"
       style="fill:#468cbf;fill-opacity:1" />
    <path
       style="fill:none;stroke:#468cbf;stroke-width:2;stroke-linecap:butt;stroke-linejoin:miter;stroke-opacity:1;stroke-miterlimit:4;stroke-dasharray:none;opacity:1"
       d="m 160.65217,-628.63782 c 55.69566,0 55.69566,0 55.69566,0"
       id="path4766"
       inkscape:connector-curvature="0" />
    <path
       inkscape:connector-curvature="0"
       id="path4768"
       d="m 146.15217,-613.63782 c 55.69566,0 55.69566,0 55.69566,0"
       style="fill:none;stroke:#468cbf;stroke-width:2;stroke-linecap:butt;stroke-linejoin:miter;stroke-opacity:1;stroke-miterlimit:4;stroke-dasharray:none;opacity:1" />
    <path
       style="fill:none;stroke:#468cbf;stroke-width:2;stroke-linecap:butt;stroke-linejoin:miter;stroke-opacity:1;stroke-miterlimit:4;stroke-dasharray:none;opacity:1"
       d="m 141.15217,-598.13782 c 55.69566,0 55.69566,0 55.69566,0"
       id="path4770"
       inkscape:connector-curvature="0" />
    <path
       inkscape:connector-curvature="0"
       id="path4772"
       d="m 146.65217,-583.13782 c 55.69566,0 55.69566,0 55.69566,0"
       style="fill:none;stroke:#468cbf;stroke-width:2;stroke-linecap:butt;stroke-linejoin:miter;stroke-opacity:1;stroke-miterlimit:4;stroke-dasharray:none;opacity:1" />
    <path
       style="fill:none;stroke:#468cbf;stroke-width:2;stroke-linecap:butt;stroke-linejoin:miter;stroke-opacity:1;stroke-miterlimit:4;stroke-dasharray:none;opacity:1"
       d="m 158.65217,-566.63782 c 55.69566,0 55.69566,0 55.69566,0"
       id="path4774"
       inkscape:connector-curvature="0" />
    <text
       xml:space="preserve"
       style="font-size:40px;font-style:normal;font-weight:normal;line-height:125%;letter-spacing:0px;word-spacing:0px;fill:#000000;fill-opacity:1;stroke:none;font-family:Sans"
       x="-71"
       y="-587.63782"
       id="text4874"
       sodipodi:linespacing="125%"><tspan
         sodipodi:role="line"
         id="tspan4876"
         x="-71"
         y="-587.63782">Roadmap</tspan></text>
    <path
       sodipodi:nodetypes="caaasc"
       inkscape:connector-curvature="0"
       id="path4878"
       d="m -65.42883,-579.57753 c 61.005339,-1.13221 86.110766,70.90308 138.24555,73.58977 40.85549,2.10543 72.79824,-45.02891 113.6904,-46.22688 45.77859,-1.34113 85.08316,52.70316 130.08719,44.2111 37.70511,-7.11479 54.3886,-55.696 87.99644,-74.2111 40.64015,-22.38932 76.83808,-9.85201 76.83808,-9.85201"
       style="fill:none;stroke:#468c34;stroke-width:7;stroke-linecap:butt;stroke-linejoin:miter;stroke-miterlimit:4;stroke-opacity:1;stroke-dasharray:14, 7;stroke-dashoffset:0" />
    <rect
       style="fill:#000000;fill-opacity:0;stroke:#468c34;stroke-width:1;stroke-linecap:butt;stroke-linejoin:miter;stroke-miterlimit:4;stroke-opacity:1;stroke-dasharray:none;stroke-dashoffset:0"
       id="rect4880"
       width="889.54034"
       height="233.34523"
       x="605.28339"
       y="-708.33368" />
    <circle
       style="color:#000000;clip-rule:nonzero;display:inline;overflow:visible;visibility:visible;opacity:1;isolation:auto;mix-blend-mode:normal;color-interpolation:sRGB;color-interpolation-filters:linearRGB;solid-color:#000000;solid-opacity:1;fill:none;fill-opacity:1;fill-rule:evenodd;stroke:#dddddd;stroke-width:6;stroke-linecap:butt;stroke-linejoin:miter;stroke-miterlimit:4;stroke-dasharray:none;stroke-dashoffset:0;stroke-opacity:1;color-rendering:auto;image-rendering:auto;shape-rendering:auto;text-rendering:auto;enable-background:accumulate"
       id="path4715"
       cx="29.698484"
       cy="-279.827"
       r="41.012192"
       inkscape:export-filename="D:\projects\godot\godot_style\parallax-template\assets\img\godot-guy-bullet.png"
       inkscape:export-xdpi="47.032406"
       inkscape:export-ydpi="47.032406" />
  </g>
</svg>
